<?xml version="1.0" encoding="utf-8"?>
<!-- Generator: Adobe Illustrator 26.5.1, SVG Export Plug-In . SVG Version: 6.00 Build 0)  -->
<svg version="1.1" id="Layer_1" xmlns="http://www.w3.org/2000/svg" xmlns:xlink="http://www.w3.org/1999/xlink" x="0px" y="0px"
	 viewBox="0 0 108 108" style="enable-background:new 0 0 108 108;" xml:space="preserve">
<style type="text/css">
	.st0{fill-rule:evenodd;clip-rule:evenodd;fill:#04A777;}
	.st1{fill:#FFFFFF;}
</style>
<g transform="matrix(1,0,0,1,181.89,1066.91)">
	<path vector-effect="non-scaling-stroke" class="st0" d="M-73.89-1012.91c0,29.82-24.18,54-54,54s-54-24.18-54-54
		c0-29.82,24.18-54,54-54S-73.89-1042.73-73.89-1012.91"/>
</g>
<g>
	<path class="st1" d="M32.74,82.39l13.55-16.43l6.2,7.91L40.54,89.06C35.97,94.88,27.5,88.75,32.74,82.39L32.74,82.39z M48.57,44.97
		c1.29-4.21,0.7-7.81-4.15-13.15L32.56,17.57c-1.68-1.97-5.64,0.93-3.99,3.32l9.48,11.67c1.79,2.18-1.54,5.06-3.39,2.82l-9.8-12.07
		c-1.82-2.09-5.6,0.67-3.69,3.06c2.76,3.32,7.04,8.75,9.8,12.08c1.92,1.95-1,4.84-2.89,2.41l-9.73-11.99
		c-1.43-1.55-3.76-0.59-4.38,1.23c-0.66,1.94,0.97,3.35,2.09,4.78l10.86,14.03c3.37,3.9,7.14,6.22,11.52,4.91
		c0.67-0.2,1.49-0.61,2.37-1.15l29.17,37.66c1.57,2.03,4.6,2.24,6.57,0.61L77,90.54c2.22-1.84,2.57-5.21,0.68-7.39l-30.89-35.5
		C47.69,46.65,48.34,45.7,48.57,44.97L48.57,44.97z M56.82,53.19l4.8-5.83c-6.18-15.32,16.72-35.73,27.82-26.35
		c13.49,11.41-6.56,38.92-20.64,32.12l-5.69,7.23L56.82,53.19L56.82,53.19z"/>
</g>
</svg>
