<?xml version="1.0" encoding="utf-8"?>
<!-- Generator: Adobe Illustrator 26.5.1, SVG Export Plug-In . SVG Version: 6.00 Build 0)  -->
<svg version="1.1" id="Layer_1" xmlns="http://www.w3.org/2000/svg" xmlns:xlink="http://www.w3.org/1999/xlink" x="0px" y="0px"
	 viewBox="0 0 108 108" style="enable-background:new 0 0 108 108;" xml:space="preserve">
<style type="text/css">
	.st0{fill-rule:evenodd;clip-rule:evenodd;fill:#F75C03;}
	.st1{fill:#FFFFFF;}
</style>
<g transform="matrix(1,0,0,1,181.89,1066.91)">
	<path vector-effect="non-scaling-stroke" class="st0" d="M-73.89-1012.91c0,29.82-24.18,54-54,54s-54-24.18-54-54
		c0-29.82,24.18-54,54-54S-73.89-1042.73-73.89-1012.91"/>
</g>
<g>
	<g transform="matrix(0.0835601,0.0147339,-0.0147339,0.0835601,191.401,1724.5)">
		<path vector-effect="none" class="st1" d="M-4516.13-19351.29c-0.91-4.04-4.42-6.97-8.56-7.13l-524.16-20.69
			c-1.54-0.05-3.08,0.27-4.46,0.97l-454.15,228.08c-3.77,1.89-5.75,6.12-4.81,10.22c0.95,4.11,4.57,7.04,8.79,7.09l565.99,7.59
			c0.04,0,0.08,0,0.12,0c1.47,0,2.92-0.36,4.23-1.04l412.32-214.98C-4517.15-19343.1-4515.23-19347.25-4516.13-19351.29"/>
	</g>
	<g transform="matrix(0.0835601,0.0147339,-0.0147339,0.0835601,191.401,1724.5)">
		<path vector-effect="none" class="st1" d="M-4689.85-19214.73c-2.81-3.26-7.52-4.12-11.3-2.06l-225.52,122.77l-339.51-9.68
			c-4.04-0.12-7.63,2.4-8.92,6.21l-49.07,144.99c-1.06,3.12-0.35,6.56,1.84,9.02c1.75,1.97,4.25,3.06,6.82,3.06
			c0.64,0,1.29-0.07,1.93-0.21c2.13-0.46,4.39-1.51,11.21-4.76c25.86-12.33,105.72-50.44,209.35-48.69
			c63.23,1.06,202.72,49.13,204.12,49.62c3.54,1.23,7.45,0.18,9.9-2.65c0.64-0.74,64.69-74.27,113.03-104.3
			c47.76-29.67,160.16-42.36,161.29-42.49c3.37-0.37,6.26-2.58,7.51-5.74c1.24-3.16,0.64-6.74-1.58-9.32L-4689.85-19214.73"/>
	</g>
	<g transform="matrix(0.0835601,0.0147339,-0.0147339,0.0835601,191.401,1724.5)">
		<path vector-effect="none" class="st1" d="M-5369.87-18876.22c2.25-23,5.3-50.44,9.46-82.67c3.96-30.69,10.8-62.03,18.57-87.15
			c7.77-25.12,18.61-44.84,21.38-47.55c6.47-6.33,12.1-9.51,15.77-11.14c0.82-0.36,1.43-0.59,1.94-0.8l-54.92,0.8
			c-7.66,12.77-13.18,28.81-19.09,47.89c-8.51,27.49-15.71,60.44-19.94,93.27c-4.04,31.3-7.06,58.33-9.31,81.27
			c-26.13,4.13-46.46,25.91-48.38,52.71c-0.21,0.66-0.37,1.34-0.43,2.06l-7.84,97.33c-0.02,0.25-0.03,0.5-0.03,0.75
			c0,4.72,3.63,8.72,8.41,9.1c0.25,0.02,0.5,0.03,0.74,0.03c4.11,0,7.68-2.76,8.78-6.64l-0.34,4.27c-0.02,0.25-0.03,0.5-0.03,0.75
			c0,4.72,3.63,8.72,8.41,9.1c0.25,0.02,0.5,0.03,0.74,0.03c2,0,3.85-0.68,5.38-1.8c0.73,3.34,3.29,6.14,6.84,6.97
			c0.7,0.16,1.4,0.24,2.08,0.24c4.15,0,7.91-2.85,8.9-7.07l2.37-10.18c0.12,0.03,0.23,0.06,0.34,0.08l-2.24,9.6
			c-0.16,0.7-0.24,1.4-0.24,2.09c0,4.15,2.85,7.91,7.07,8.89c0.7,0.16,1.4,0.24,2.08,0.24c3.44,0,6.58-1.97,8.13-5.04
			c0.41,3.51,2.81,6.62,6.4,7.71c0.88,0.27,1.78,0.4,2.66,0.4c3.92,0,7.55-2.54,8.75-6.49l15.15-49.9
			c14.3-23.98,22.88-54.52,22.88-68.36C-5339.42-18847.39-5351.77-18866.5-5369.87-18876.22 M-5390.65-18727.32
			c0.08-0.04,0.16-0.09,0.24-0.12l-0.91,2.99L-5390.65-18727.32"/>
	</g>
</g>
</svg>
