<?xml version="1.0" encoding="utf-8"?>
<!-- Generator: Adobe Illustrator 26.5.1, SVG Export Plug-In . SVG Version: 6.00 Build 0)  -->
<svg version="1.1" id="Layer_1" xmlns="http://www.w3.org/2000/svg" xmlns:xlink="http://www.w3.org/1999/xlink" x="0px" y="0px"
	 viewBox="0 0 108 108" style="enable-background:new 0 0 108 108;" xml:space="preserve">
<style type="text/css">
	.st0{fill-rule:evenodd;clip-rule:evenodd;fill:#FCC015;}
	.st1{fill-rule:evenodd;clip-rule:evenodd;fill:#FFFFFF;}
</style>
<g transform="matrix(1,0,0,1,181.89,1066.91)">
	<path vector-effect="non-scaling-stroke" class="st0" d="M-73.89-1012.91c0,29.82-24.18,54-54,54s-54-24.18-54-54
		c0-29.82,24.18-54,54-54S-73.89-1042.73-73.89-1012.91"/>
</g>
<g>
	<path class="st1" d="M53.36,17.91c19.42,0,35.18,15.75,35.18,35.18c0,9.41-3.7,17.96-9.72,24.28c1.96,5.86,2.6,4.09,10.18,5.21
		v7.33c-11.31,0.46-9.06-0.67-16.16-7.53c-5.58,3.72-12.27,5.88-19.48,5.88c-19.43,0-35.18-15.75-35.18-35.18
		C18.18,33.66,33.94,17.91,53.36,17.91L53.36,17.91z M34.39,43.87c5.23,0,9.47,4.24,9.47,9.47c0,5.23-4.24,9.46-9.47,9.46
		c-5.23,0-9.46-4.24-9.46-9.46C24.93,48.11,29.16,43.87,34.39,43.87L34.39,43.87z M72.79,43.87c5.23,0,9.47,4.24,9.47,9.47
		c0,5.23-4.24,9.46-9.47,9.46c-5.23,0-9.46-4.24-9.46-9.46C63.32,48.11,67.56,43.87,72.79,43.87L72.79,43.87z M53.87,24.28
		c5.23,0,9.46,4.24,9.46,9.47c0,5.23-4.24,9.46-9.46,9.46s-9.47-4.24-9.47-9.46C44.4,28.52,48.64,24.28,53.87,24.28L53.87,24.28
		L53.87,24.28z M53.53,48.25c2.69,0,4.87,2.18,4.87,4.87c0,2.69-2.18,4.87-4.87,4.87c-2.69,0-4.87-2.18-4.87-4.87
		C48.66,50.42,50.84,48.25,53.53,48.25L53.53,48.25L53.53,48.25z M53.87,63.89c5.23,0,9.46,4.24,9.46,9.47
		c0,5.23-4.24,9.46-9.46,9.46s-9.47-4.24-9.47-9.46C44.4,68.13,48.64,63.89,53.87,63.89L53.87,63.89L53.87,63.89z"/>
</g>
</svg>
