<?xml version="1.0" encoding="utf-8"?>
<!-- Generator: Adobe Illustrator 26.5.1, SVG Export Plug-In . SVG Version: 6.00 Build 0)  -->
<svg version="1.1" id="Layer_1" xmlns="http://www.w3.org/2000/svg" xmlns:xlink="http://www.w3.org/1999/xlink" x="0px" y="0px"
	 viewBox="0 0 108 108" style="enable-background:new 0 0 108 108;" xml:space="preserve">
<style type="text/css">
	.st0{fill-rule:evenodd;clip-rule:evenodd;fill:#F6A11D;}
	.st1{fill-rule:evenodd;clip-rule:evenodd;fill:#FFFFFF;}
</style>
<g transform="matrix(1,0,0,1,181.89,1066.91)">
	<path vector-effect="non-scaling-stroke" class="st0" d="M-73.89-1012.91c0,29.82-24.18,54-54,54s-54-24.18-54-54
		c0-29.82,24.18-54,54-54S-73.89-1042.73-73.89-1012.91"/>
</g>
<g>
	<path class="st1" d="M24.9,20.69h57.28c0.62,0,1.07,0.5,1.12,1.12L88,86.58c0.04,0.61-0.5,1.12-1.12,1.12H20.19
		c-0.61,0-1.16-0.5-1.12-1.12l4.7-64.76C23.82,21.19,24.28,20.69,24.9,20.69L24.9,20.69z M37.69,34.03v8.6v0.01h-0.01
		c0,4.17,1.72,7.97,4.46,10.72c2.75,2.75,6.55,4.47,10.72,4.47v-0.01h0.02l0,0h0.01v0.01c4.17,0,7.97-1.71,10.72-4.46
		c2.75-2.75,4.46-6.55,4.47-10.72h-0.01v-0.02v-8.7c-1.85-0.61-3.19-2.34-3.19-4.4c0-2.56,2.07-4.63,4.63-4.63s4.63,2.08,4.63,4.63
		c0,1.65-0.88,3.11-2.18,3.93v9.17v0.02h-0.01c-0.01,5.24-2.15,10.01-5.59,13.45c-3.46,3.46-8.23,5.6-13.47,5.61v0.01h-0.01l0,0
		h-0.02V61.7c-5.24-0.01-10-2.15-13.46-5.59c-3.46-3.46-5.6-8.23-5.61-13.47h-0.01v-0.01v-9.41c-1.12-0.85-1.84-2.18-1.84-3.69
		c0-2.56,2.08-4.63,4.63-4.63s4.63,2.08,4.63,4.63C41.23,31.71,39.72,33.53,37.69,34.03L37.69,34.03z"/>
</g>
</svg>
