<?xml version="1.0" encoding="utf-8"?>
<!-- Generator: Adobe Illustrator 26.5.1, SVG Export Plug-In . SVG Version: 6.00 Build 0)  -->
<svg version="1.1" id="Layer_1" xmlns="http://www.w3.org/2000/svg" xmlns:xlink="http://www.w3.org/1999/xlink" x="0px" y="0px"
	 viewBox="0 0 108 108" style="enable-background:new 0 0 108 108;" xml:space="preserve">
<style type="text/css">
	.st0{fill-rule:evenodd;clip-rule:evenodd;fill:#1434CB;}
	.st1{fill:#FFFFFF;}
</style>
<g transform="matrix(1,0,0,1,181.89,1066.91)">
	<path vector-effect="non-scaling-stroke" class="st0" d="M-73.89-1012.91c0,29.82-24.18,54-54,54s-54-24.18-54-54
		c0-29.82,24.18-54,54-54S-73.89-1042.73-73.89-1012.91"/>
</g>
<g transform="matrix(0.0848492,0,0,0.0848492,186.284,1903.98)">
	<path vector-effect="none" class="st1" d="M-1096.64-22154.66c-7.01-12.38-22.74-16.72-35.11-9.71l-90.36,51.2
		c-6.25,3.54-10.74,9.53-12.38,16.52l-14.94,63.62h-752.13c-7.96,0-15.47,3.68-20.35,9.97c-4.88,6.29-6.58,14.48-4.6,22.19
		l90.83,354.47c2.6,10.12,11.05,17.68,21.4,19.12l563.3,78.52v29.85h-502.54c-11.07,0-20.48,6.99-24.13,16.79
		c-7.69,3.86-14.78,9.07-20.97,15.55c-14.21,14.86-22.04,34.55-22.04,55.46c0,43.47,34.18,78.85,76.2,78.85c0,0,0,0,0.01,0
		c20.5,0,39.74-8.3,54.16-23.38c14.21-14.86,22.04-34.55,22.04-55.46v-0.01c0-13.08-3.11-25.41-8.58-36.28h314.67
		c-6.82,11.98-10.47,25.68-10.48,39.94c0,43.48,34.18,78.85,76.2,78.86h0.01c20.5,0,39.74-8.3,54.16-23.38
		c14.21-14.86,22.04-34.55,22.04-55.46c0,0,0-0.01,0-0.02c0-14.57-3.86-28.22-10.54-39.94h5.55c14.23,0,25.76-11.53,25.76-25.76
		v-80.43l96.38-428.03c0.45-2.01,0.64-4.04,0.61-6.06l15.55-66.24l80.56-45.65C-1093.97-22126.57-1089.62-22142.28-1096.64-22154.66
		 M-1852.94-21702.04h124.91v48.7l-127.74-17.81c1.79-2.71,2.83-5.95,2.83-9.44V-21702.04L-1852.94-21702.04 M-1933.81-21846.67
		h46.52v110.28h-18.26L-1933.81-21846.67 M-1852.94-21846.67h124.91v110.28h-124.91V-21846.67 M-1322.74-21736.39h-41.45v-110.28h71
		l-25.99,110.65C-1320.33-21736.26-1321.52-21736.39-1322.74-21736.39 M-1398.54-21736.39h-128.57v-110.28h128.57L-1398.54-21736.39
		 M-1561.46-21736.39h-132.23v-110.28h132.23V-21736.39 M-1527.11-21881.02v-100.48h128.57v100.48H-1527.11 M-1561.46-21881.02
		h-132.23v-100.48h132.23V-21881.02 M-1728.03-21881.02h-124.91v-100.48h124.91V-21881.02 M-1693.68-21702.04h132.23v71.92
		l-132.23-18.43V-21702.04 M-1527.11-21627.64v-74.4h128.57v94.63l-128.74-17.95
		C-1527.18-21626.11-1527.11-21626.87-1527.11-21627.64 M-1364.19-21603.2v-98.84h37.03l-23.14,98.53
		c-0.21,0.91-0.37,1.84-0.48,2.77l-13.44-1.88C-1364.22-21602.82-1364.19-21603.01-1364.19-21603.2 M-1285.29-21880.31
		c-1.54-0.46-3.17-0.71-4.86-0.71h-74.03v-100.48h102.66L-1285.29-21880.31 M-1887.29-21981.5v100.48h-55.32l-25.75-100.48H-1887.29
		 M-1896.75-21702.04h9.46v21.45c0,1.79,0.28,3.53,0.79,5.16l-3.56-0.5L-1896.75-21702.04 M-1804.82-21431.1L-1804.82-21431.1
		c0,11.45-4.23,22.17-11.89,30.19c-7.45,7.79-17.3,12.08-27.73,12.08l0,0c-21.85,0-39.62-18.97-39.62-42.27
		c0-11.45,4.22-22.16,11.89-30.18c2.99-3.13,6.39-5.67,10.04-7.62c2.7,0.96,5.6,1.51,8.63,1.51h29.36
		C-1812.59-21460-1804.82-21446.5-1804.82-21431.1 M-1356.8-21427.45C-1356.8-21427.44-1356.8-21427.44-1356.8-21427.45
		c0,11.45-4.23,22.17-11.89,30.19c-7.46,7.79-17.3,12.09-27.73,12.09c0,0,0,0-0.01,0c-21.85,0-39.63-18.97-39.62-42.28
		c0-11.44,4.23-22.16,11.89-30.18c4.28-4.47,9.35-7.74,14.86-9.76h25.82C-1367.98-21461.65-1356.8-21445.92-1356.8-21427.45"/>
</g>
</svg>
