<?xml version="1.0" encoding="utf-8"?>
<!-- Generator: Adobe Illustrator 26.5.1, SVG Export Plug-In . SVG Version: 6.00 Build 0)  -->
<svg version="1.1" id="Layer_1" xmlns="http://www.w3.org/2000/svg" xmlns:xlink="http://www.w3.org/1999/xlink" x="0px" y="0px"
	 viewBox="0 0 108 108" style="enable-background:new 0 0 108 108;" xml:space="preserve">
<style type="text/css">
	.st0{fill-rule:evenodd;clip-rule:evenodd;fill:#545454;}
	.st1{fill:#FFFFFF;}
</style>
<g transform="matrix(1,0,0,1,181.89,1066.91)">
	<path vector-effect="non-scaling-stroke" class="st0" d="M-73.89-1012.91c0,29.82-24.18,54-54,54s-54-24.18-54-54
		c0-29.82,24.18-54,54-54S-73.89-1042.73-73.89-1012.91"/>
</g>
<g>
	<g transform="matrix(0.0678797,0,0,0.0678797,191.11,893.063)">
		<path vector-effect="none" class="st1" d="M-1562.66-12645.43l14.96-73.22l-469.64-200.2l-469.64,200.2l14.96,73.22H-1562.66
			 M-2017.33-12835.93l267.95,114.22h-535.91L-2017.33-12835.93"/>
	</g>
	<g transform="matrix(0.0678797,0,0,0.0678797,191.11,893.063)">
		<path vector-effect="none" class="st1" d="M-2401.22-12237.9h767.8v65.26h-767.8V-12237.9"/>
	</g>
	<g transform="matrix(0.0678797,0,0,0.0678797,191.11,893.063)">
		<path vector-effect="none" class="st1" d="M-2451.06-12120.36h867.47v76.88h-867.47V-12120.36"/>
	</g>
	<g transform="matrix(0.0678797,0,0,0.0678797,191.11,893.063)">
		<path vector-effect="none" class="st1" d="M-2515.68-11985.98H-1519v84.32h-996.67V-11985.98"/>
	</g>
	<g transform="matrix(0.0678797,0,0,0.0678797,191.11,893.063)">
		<path vector-effect="none" class="st1" d="M-2333.29-12623.76c0,0-26.26,128.94-26.26,358.67h110.69
			c0-229.73-28.45-358.67-28.45-358.67H-2333.29"/>
	</g>
	<g transform="matrix(0.0678797,0,0,0.0678797,191.11,893.063)">
		<path vector-effect="none" class="st1" d="M-2141.85-12623.76c0,0-26.26,128.94-26.26,358.67h110.69
			c0-229.73-28.45-358.67-28.45-358.67H-2141.85"/>
	</g>
	<g transform="matrix(0.0678797,0,0,0.0678797,191.11,893.063)">
		<path vector-effect="none" class="st1" d="M-1950.45-12623.76c0,0-26.22,128.94-26.22,358.67h110.69
			c0-229.73-28.45-358.67-28.45-358.67H-1950.45"/>
	</g>
	<g transform="matrix(0.0678797,0,0,0.0678797,191.11,893.063)">
		<path vector-effect="none" class="st1" d="M-1759.01-12623.76c0,0-26.22,128.94-26.22,358.67h110.69
			c0-229.73-28.45-358.67-28.45-358.67H-1759.01"/>
	</g>
</g>
</svg>
