<?xml version="1.0" encoding="utf-8"?>
<!-- Generator: Adobe Illustrator 26.5.1, SVG Export Plug-In . SVG Version: 6.00 Build 0)  -->
<svg version="1.1" id="Layer_1" xmlns="http://www.w3.org/2000/svg" xmlns:xlink="http://www.w3.org/1999/xlink" x="0px" y="0px"
	 viewBox="0 0 108 108" style="enable-background:new 0 0 108 108;" xml:space="preserve">
<style type="text/css">
	.st0{fill-rule:evenodd;clip-rule:evenodd;fill:#4E8DCA;}
	.st1{fill:#FFFFFF;}
</style>
<g transform="matrix(1,0,0,1,181.89,1066.91)">
	<path vector-effect="non-scaling-stroke" class="st0" d="M-73.89-1012.91c0,29.82-24.18,54-54,54s-54-24.18-54-54
		c0-29.82,24.18-54,54-54S-73.89-1042.73-73.89-1012.91"/>
</g>
<g id="icon_00000135663185006713788900000001456160855190445236_">
	<path class="st1" d="M28.87,38.57l3.7,1.21c0.58,0.75,1.27,1.39,2.02,2.02l1.21,3.7l3.18,1.33l3.47-1.73
		c0.98,0.12,1.91,0.12,2.83,0l3.47,1.73l3.18-1.33l1.21-3.7c0.75-0.58,1.39-1.27,2.02-2.02l3.7-1.21l1.33-3.18l-1.73-3.47
		c0.12-0.92,0.12-1.85,0-2.77l1.73-3.47l-1.33-3.18l-3.7-1.27c-0.58-0.69-1.27-1.39-1.96-1.96l-1.21-3.7l-3.18-1.33l-3.52,1.73
		c-0.92-0.12-1.85-0.06-2.71,0l-3.52-1.73l-3.18,1.33l-1.33,3.7c-0.69,0.58-1.33,1.21-1.96,1.96l-3.75,1.21l-1.27,3.18l1.73,3.47
		c-0.12,0.92-0.12,1.85,0,2.77l-1.73,3.47C27.54,35.34,28.87,38.57,28.87,38.57z M36.61,28.52c1.1-3.99,5.26-6.3,9.24-5.2
		s6.35,5.2,5.26,9.18s-5.26,6.3-9.24,5.2S35.51,32.51,36.61,28.52z M65.26,35.4l-0.52,2.31l1.27,1.68l2.37,0.17
		c0.46,0.35,0.98,0.64,1.5,0.92l1.27,2.02l2.08,0.35l1.85-1.56c0.58-0.06,1.16-0.23,1.68-0.4l2.37,0.52l1.73-1.27l0.23-2.37
		c0.35-0.46,0.64-0.92,0.87-1.44l2.02-1.27l0.35-2.08l-1.56-1.85c-0.06-0.58-0.23-1.1-0.4-1.62l0.52-2.37l-1.27-1.68l-2.43-0.23
		c-0.46-0.35-0.92-0.64-1.44-0.87l-1.27-2.02l-2.08-0.35l-1.85,1.56c-0.58,0.06-1.16,0.23-1.68,0.4l-2.37-0.52l-1.73,1.27
		l-0.23,2.37c-0.35,0.46-0.64,0.98-0.92,1.5l-2.02,1.27l-0.29,2.02l1.56,1.85C64.97,34.3,65.09,34.88,65.26,35.4z M73.93,27.83
		c2.54,0.06,4.56,2.2,4.51,4.74s-2.2,4.56-4.74,4.45c-2.54-0.06-4.56-2.2-4.51-4.74S71.39,27.77,73.93,27.83z M98.77,55.09
		l-0.35-0.64c-1.1-1.79-3.06-2.89-5.2-2.89c-0.46,0-0.92,0.06-1.39,0.17c-0.29-0.64-0.69-1.27-1.21-1.79
		c-1.33-1.44-3.23-2.25-5.2-2.25c-1.16,0-2.31,0.29-3.35,0.81l-0.06-0.06c-1.16-1.1-2.6-1.68-4.16-1.68c-1.5,0-3,0.58-4.1,1.62
		l-8.09,6.47l-7.51-2.31l-2.89-0.87c-2.31-0.69-4.74-1.1-7.16-1.1c-2.95,0-5.83,0.52-8.55,1.56l-6.53,2.48
		c-0.81-1.33-2.43-2.02-3.99-1.56l-13.57,4.1c-1.85,0.58-2.89,2.48-2.31,4.33l5.6,18.2c1.04-0.64,2.31-1.04,3.64-1.04
		c3.52,0,6.47,2.71,6.82,6.12l8.72-2.66c1.73-0.52,2.71-2.25,2.37-3.99c1.56,0,3,0.17,4.16,0.69c3.81,1.85,12.13,5.03,17.91,5.03
		c2.66,0,5.03-0.58,7.05-1.73c4.85-2.71,20.74-14.38,27.5-18.83C99.69,61.45,100.5,57.87,98.77,55.09L98.77,55.09z M94.95,60.18
		c-5.78,3.81-22.47,16-27.26,18.72c-1.62,0.92-3.41,1.27-5.26,1.27c-4.85,0-13.29-3.35-16.92-4.62c-2.25-0.75-4.39-0.98-6.18-1.04
		l-5.08-16.4l6.64-2.54c2.31-0.87,4.79-1.33,7.28-1.33c2.02,0,4.1,0.29,6.07,0.92l5.55,1.73l10.46,3.52h0.06
		c1.27,0.4,2.25,1.56,2.2,2.95c-0.06,1.73-1.5,2.83-3.12,2.89c-3.52,0.17-7.86-1.04-14.73-3.41c-1.04-0.35-1.79,1.1-0.87,1.73
		c4.51,3.12,8.32,4.91,15.42,5.37h0.29c3,0,5.72-2.08,6.47-5.03c0.87-3.52-1.16-6.99-4.62-7.97l-1.85-0.64l6.82-5.2
		c0.46-0.4,1.04-0.64,1.62-0.64c0.58,0,1.16,0.23,1.62,0.64c0.87,0.81,0.98,2.08,0.29,3.06c-0.17,0.29,0.06,0.58,0.29,0.58
		c0.06,0,0.17,0,0.23-0.12l2.89-2.48c0.64-0.52,1.39-0.81,2.2-0.81c1.33,0,2.66,0.81,3.23,2.37c0.23,0.75,0.12,1.5-0.12,2.25
		c-0.23,0.69-2.14,3.12,0.92,1.33l2.25-1.5c0.46-0.35,0.92-0.52,1.44-0.52c0.81,0,1.56,0.4,2.02,1.16l0.35,0.64
		C96.28,58.1,95.99,59.48,94.95,60.18L94.95,60.18z"/>
	<circle class="st1" cx="22.46" cy="85.48" r="3.52"/>
</g>
</svg>
