<?xml version="1.0" encoding="utf-8"?>
<!-- Generator: Adobe Illustrator 26.5.1, SVG Export Plug-In . SVG Version: 6.00 Build 0)  -->
<svg version="1.1" id="Layer_1" xmlns="http://www.w3.org/2000/svg" xmlns:xlink="http://www.w3.org/1999/xlink" x="0px" y="0px"
	 viewBox="0 0 108 108" style="enable-background:new 0 0 108 108;" xml:space="preserve">
<style type="text/css">
	
		.st0{fill-rule:evenodd;clip-rule:evenodd;fill:#AF6FE7;stroke:#595959;stroke-width:0.24;stroke-linecap:square;stroke-linejoin:bevel;stroke-miterlimit:10;}
	.st1{fill:#FFFFFF;}
</style>
<g transform="matrix(1,0,0,1,181.89,1066.91)">
	<path vector-effect="non-scaling-stroke" class="st0" d="M-73.89-1012.91c0,29.82-24.18,54-54,54s-54-24.18-54-54
		c0-29.82,24.18-54,54-54S-73.89-1042.73-73.89-1012.91"/>
</g>
<g transform="matrix(0.164042,0,0,0.164042,185.102,1070.13)">
	<path vector-effect="none" class="st1" d="M-813.18-6042.88c-30.41-4.02-60.94-7.37-91.18-12.34
		c-15.36-2.52-15.38-3.88-15.07-19.17c0.33-16.11-0.24-32.42,2.12-48.28c4.52-30.21,21.2-53.27,46.27-70.46
		c4.11-2.82,6.89-2.83,11.1,0.48c30.52,24.14,64.85,24.09,95.35-0.13c4.24-3.37,7.08-3.11,11.16-0.29
		c30.08,20.81,46.34,49.38,48.13,85.9c0.59,12.16-0.59,24.43,0.4,36.54c0.75,9.09-3.18,13.11-11.08,14.34
		c-22.82,3.51-45.65,7.1-68.58,9.88c-9.31,1.12-18.85,0.18-28.29,0.18l-0.35,3.35L-813.18-6042.88"/>
</g>
<g transform="matrix(0.164042,0,0,0.164042,185.102,1070.13)">
	<path vector-effect="none" class="st1" d="M-888.6-6254.4c4.41,16.4,8.69,32.35,13.37,49.71c-0.55,0.4-2.91,2.21-5.3,3.97
		c-29.13,21.27-46.07,49.74-49.96,85.66c-0.57,5.25-1.37,8.32-7.79,8.27c-30.83-0.24-61.52-1.87-91.55-9.51
		c-15.2-3.88-15.29-4.04-15.12-19.4c0.15-13.99-0.42-28.11,1.13-41.97c3.66-32.81,20.14-58.25,47.53-76.48
		c2.3-1.54,7.52-2.16,9.18-0.71c30.52,26.85,72.8,23.01,97.99,0.62c0.38-0.35,1.1-0.31,0.53-0.16V-6254.4"/>
</g>
<g transform="matrix(0.164042,0,0,0.164042,185.102,1070.13)">
	<path vector-effect="none" class="st1" d="M-749.39-6204.65c4.77-17.65,9.05-33.5,13.39-49.54c1.12,0.77,3.29,2.25,5.43,3.79
		c27.87,19.97,63.28,19.29,89.74-2.51c5.43-4.48,8.85-4.22,14.05-0.48c30.25,21.84,46.01,51.24,46.87,88.51
		c0.27,11.87-0.33,23.77,0.16,35.62c0.27,6.49-2.58,9.22-8.3,10.92c-32.5,9.67-65.89,11.41-99.49,11.21c-2.07,0-5.72-2.93-5.91-4.75
		c-3.84-40.73-23.77-71.52-55.92-92.77H-749.39"/>
</g>
<g transform="matrix(0.164042,0,0,0.164042,185.102,1070.13)">
	<path vector-effect="none" class="st1" d="M-625.21-6309.48c-0.11,33.94-27.89,61.56-61.87,61.52
		c-34.51-0.04-62.16-27.85-61.98-62.33c0.18-33.94,27.89-61.54,61.85-61.65c34.18-0.11,62.09,28.02,61.98,62.45H-625.21"/>
</g>
<g transform="matrix(0.164042,0,0,0.164042,185.102,1070.13)">
	<path vector-effect="none" class="st1" d="M-938.18-6247.98c-34.42-0.22-61.81-28.22-61.47-62.82
		c0.35-33.72,28.62-61.45,62.38-61.15c34.2,0.29,61.94,28.68,61.54,62.98C-876.12-6275.1-904.1-6247.76-938.18-6247.98"/>
</g>
<g transform="matrix(0.164042,0,0,0.164042,185.102,1070.13)">
	<path vector-effect="none" class="st1" d="M-812.13-6310.59c34.34,0.07,61.96,28.13,61.65,62.64
		c-0.31,34.09-28.04,61.58-61.96,61.43c-34.09-0.15-61.52-27.63-61.59-61.74c-0.09-34.62,27.51-62.38,61.92-62.31L-812.13-6310.59"
		/>
</g>
</svg>
