<?xml version="1.0" encoding="utf-8"?>
<!-- Generator: Adobe Illustrator 26.5.1, SVG Export Plug-In . SVG Version: 6.00 Build 0)  -->
<svg version="1.1" id="Layer_1" xmlns="http://www.w3.org/2000/svg" xmlns:xlink="http://www.w3.org/1999/xlink" x="0px" y="0px"
	 viewBox="0 0 108 108" style="enable-background:new 0 0 108 108;" xml:space="preserve">
<style type="text/css">
	
		.st0{fill-rule:evenodd;clip-rule:evenodd;fill:#AF6FE7;stroke:#9255C7;stroke-width:0.24;stroke-linecap:square;stroke-linejoin:bevel;stroke-miterlimit:10;}
	.st1{fill:#FFFFFF;}
</style>
<g transform="matrix(1,0,0,1,181.89,972.425)">
	<path vector-effect="non-scaling-stroke" class="st0" d="M-73.89-918.43c0,29.82-24.18,54-54,54s-54-24.18-54-54
		c0-29.82,24.18-54,54-54S-73.89-948.25-73.89-918.43"/>
</g>
<g transform="matrix(0.0848492,0,0,0.0848492,186.284,976.819)">
	<path vector-effect="none" class="st1" d="M-1138.21-11000.67c-4.89-6.17-12.33-9.78-20.2-9.78h-349.38l87.52-235.21
		c1.69-4.54,1.51-9.58-0.51-13.99c-2.02-4.41-5.71-7.84-10.25-9.53l-28.66-10.66c-9.46-3.52-19.99,1.29-23.52,10.76l-96.24,258.63
		h-363.3c-7.87,0-15.3,3.59-20.19,9.76c-4.89,6.17-6.69,14.22-4.89,21.88l90.83,387.39c2.73,11.65,13.12,19.88,25.08,19.88
		c0.04,0,0.08,0,0.12,0l602.65-2.67c11.9-0.05,22.22-8.26,24.96-19.84l90.84-384.72
		C-1131.53-10986.43-1133.33-10994.5-1138.21-11000.67 M-1488-10958.92v100.49h-132.23v-100.49H-1488 M-1488-10824.09v110.28
		h-132.23v-110.28H-1488 M-1654.58-10858.43h-124.91v-100.49h124.91V-10858.43 M-1654.58-10824.09v110.28h-124.91v-110.28H-1654.58
		 M-1654.58-10679.46v55.53l-124.91,0.55v-56.08H-1654.58 M-1620.23-10679.46h132.23v54.79l-132.23,0.58V-10679.46
		 M-1453.66-10679.46h128.57v54.07l-128.57,0.57V-10679.46 M-1453.66-10713.81v-110.28h128.57v110.28H-1453.66 M-1453.66-10858.43
		v-100.49h128.57v100.49H-1453.66 M-1813.84-10958.92v100.49h-58.98c-4.97,0-9.43,2.12-12.56,5.49l-24.85-105.97H-1813.84
		 M-1878.88-10825.21c1.89,0.71,3.92,1.12,6.06,1.12h58.98v110.28h-26.4c-4.42,0-8.44,1.68-11.48,4.43L-1878.88-10825.21
		 M-1844.86-10680.1c1.47,0.41,3.02,0.65,4.62,0.65h26.4v56.23l-17.66,0.08L-1844.86-10680.1 M-1290.74-10625.54v-53.92h33.79
		l-12.71,53.83L-1290.74-10625.54 M-1248.85-10713.78c-0.15,0-0.29-0.02-0.44-0.02h-41.45v-110.28h67.94L-1248.85-10713.78
		 M-1214.72-10858.31c-0.65-0.08-1.31-0.12-1.99-0.12h-74.03v-100.49h99.78L-1214.72-10858.31"/>
</g>
</svg>
