<?xml version="1.0" encoding="utf-8"?>
<!-- Generator: Adobe Illustrator 26.5.1, SVG Export Plug-In . SVG Version: 6.00 Build 0)  -->
<svg version="1.1" id="Layer_1" xmlns="http://www.w3.org/2000/svg" xmlns:xlink="http://www.w3.org/1999/xlink" x="0px" y="0px"
	 viewBox="0 0 108 108" style="enable-background:new 0 0 108 108;" xml:space="preserve">
<style type="text/css">
	
		.st0{fill-rule:evenodd;clip-rule:evenodd;fill:#AF6FE7;stroke:#9255C7;stroke-width:0.24;stroke-linecap:square;stroke-linejoin:bevel;stroke-miterlimit:10;}
	.st1{fill:#FFFFFF;}
</style>
<g transform="matrix(1,0,0,1,187.795,889.748)">
	<path vector-effect="non-scaling-stroke" class="st0" d="M-79.79-835.75c0,29.82-24.18,54-54,54s-54-24.18-54-54s24.18-54,54-54
		S-79.79-865.57-79.79-835.75"/>
</g>
<g transform="matrix(0.0678797,0,0,0.0678797,191.11,893.063)">
	<path vector-effect="none" class="st1" d="M-1528.92-12671.43l16.21-79.34l-508.89-216.93l-508.89,216.93l16.21,79.34H-1528.92
		 M-2021.6-12877.85l290.35,123.77h-580.7L-2021.6-12877.85"/>
</g>
<g transform="matrix(0.0678797,0,0,0.0678797,191.11,893.063)">
	<path vector-effect="none" class="st1" d="M-2437.57-12229.83h831.97v70.71h-831.97V-12229.83"/>
</g>
<g transform="matrix(0.0678797,0,0,0.0678797,191.11,893.063)">
	<path vector-effect="none" class="st1" d="M-2491.57-12102.47h939.97v83.3h-939.97V-12102.47"/>
</g>
<g transform="matrix(0.0678797,0,0,0.0678797,191.11,893.063)">
	<path vector-effect="none" class="st1" d="M-2561.59-11956.86h1079.97v91.37h-1079.97V-11956.86"/>
</g>
<g transform="matrix(0.0678797,0,0,0.0678797,191.11,893.063)">
	<path vector-effect="none" class="st1" d="M-2363.96-12647.94c0,0-28.45,139.72-28.45,388.65h119.94
		c0-248.93-30.83-388.65-30.83-388.65H-2363.96"/>
</g>
<g transform="matrix(0.0678797,0,0,0.0678797,191.11,893.063)">
	<path vector-effect="none" class="st1" d="M-2156.52-12647.94c0,0-28.45,139.72-28.45,388.65h119.94
		c0-248.93-30.83-388.65-30.83-388.65H-2156.52"/>
</g>
<g transform="matrix(0.0678797,0,0,0.0678797,191.11,893.063)">
	<path vector-effect="none" class="st1" d="M-1949.12-12647.94c0,0-28.41,139.72-28.41,388.65h119.94
		c0-248.93-30.83-388.65-30.83-388.65H-1949.12"/>
</g>
<g transform="matrix(0.0678797,0,0,0.0678797,191.11,893.063)">
	<path vector-effect="none" class="st1" d="M-1741.68-12647.94c0,0-28.41,139.72-28.41,388.65h119.94
		c0-248.93-30.83-388.65-30.83-388.65H-1741.68"/>
</g>
</svg>
