<?xml version="1.0" encoding="utf-8"?>
<!-- Generator: Adobe Illustrator 26.5.1, SVG Export Plug-In . SVG Version: 6.00 Build 0)  -->
<svg version="1.1" id="Layer_1" xmlns="http://www.w3.org/2000/svg" xmlns:xlink="http://www.w3.org/1999/xlink" x="0px" y="0px"
	 viewBox="0 0 108 108" style="enable-background:new 0 0 108 108;" xml:space="preserve">
<style type="text/css">
	
		.st0{fill-rule:evenodd;clip-rule:evenodd;fill:#E88713;stroke:#BE6D10;stroke-width:0.24;stroke-linecap:square;stroke-linejoin:bevel;stroke-miterlimit:10;}
	.st1{fill:#FFFFFF;}
</style>
<g transform="matrix(1,0,0,1,181.89,1899.59)">
	<path vector-effect="non-scaling-stroke" class="st0" d="M-73.89-1845.59c0,29.82-24.18,54-54,54s-54-24.18-54-54
		c0-29.82,24.18-54,54-54S-73.89-1875.41-73.89-1845.59"/>
</g>
<g transform="matrix(0.0848492,0,0,0.0848492,186.284,1903.98)">
	<path vector-effect="none" class="st1" d="M-1081.71-22180.05c-7.01-12.38-22.74-16.72-35.11-9.71l-90.36,51.2
		c-6.25,3.54-10.74,9.53-12.38,16.52l-14.94,63.62h-752.13c-7.96,0-15.47,3.68-20.35,9.97c-4.88,6.29-6.58,14.48-4.6,22.19
		l90.83,354.47c2.6,10.12,11.05,17.68,21.4,19.12l563.3,78.52v29.85h-502.54c-11.07,0-20.48,6.99-24.13,16.79
		c-7.69,3.86-14.78,9.07-20.97,15.55c-14.21,14.86-22.04,34.55-22.04,55.46c0,43.47,34.18,78.85,76.2,78.85c0,0,0,0,0.01,0
		c20.5,0,39.74-8.3,54.16-23.38c14.21-14.86,22.04-34.55,22.04-55.46c0,0,0-0.01,0-0.01c0-13.08-3.11-25.41-8.58-36.28h314.67
		c-6.82,11.98-10.47,25.68-10.48,39.94c0,43.48,34.18,78.85,76.2,78.86c0,0,0.01,0,0.01,0c20.5,0,39.74-8.3,54.16-23.38
		c14.21-14.86,22.04-34.55,22.04-55.46c0,0,0-0.01,0-0.02c0-14.57-3.86-28.22-10.54-39.94h5.55c14.23,0,25.76-11.53,25.76-25.76
		v-80.43l96.38-428.03c0.45-2.01,0.64-4.04,0.61-6.06l15.55-66.24l80.56-45.65C-1079.04-22151.96-1074.69-22167.67-1081.71-22180.05
		 M-1838.01-21727.43h124.91v48.7l-127.74-17.81c1.79-2.71,2.83-5.95,2.83-9.44L-1838.01-21727.43L-1838.01-21727.43
		 M-1918.88-21872.06h46.52v110.28h-18.26L-1918.88-21872.06 M-1838.01-21872.06h124.91v110.28h-124.91V-21872.06
		 M-1307.81-21761.78h-41.45v-110.28h71l-25.99,110.65C-1305.4-21761.65-1306.59-21761.78-1307.81-21761.78 M-1383.61-21761.78
		h-128.57v-110.28h128.57V-21761.78 M-1546.53-21761.78h-132.23v-110.28h132.23V-21761.78 M-1512.18-21906.41v-100.48h128.57v100.48
		H-1512.18 M-1546.53-21906.41h-132.23v-100.48h132.23V-21906.41 M-1713.1-21906.41h-124.91v-100.48h124.91V-21906.41
		 M-1678.75-21727.43h132.23v71.92l-132.23-18.43V-21727.43 M-1512.18-21653.03v-74.4h128.57v94.63l-128.74-17.95
		C-1512.25-21651.5-1512.18-21652.26-1512.18-21653.03 M-1349.26-21628.59v-98.84h37.03l-23.14,98.53
		c-0.21,0.91-0.37,1.84-0.48,2.77l-13.44-1.88C-1349.29-21628.21-1349.26-21628.4-1349.26-21628.59 M-1270.36-21905.7
		c-1.54-0.46-3.17-0.71-4.86-0.71h-74.03v-100.48h102.66L-1270.36-21905.7 M-1872.36-22006.89v100.48h-55.32l-25.75-100.48H-1872.36
		 M-1881.82-21727.43h9.46v21.45c0,1.79,0.28,3.53,0.79,5.16l-3.56-0.5L-1881.82-21727.43 M-1789.89-21456.49
		C-1789.89-21456.49-1789.89-21456.49-1789.89-21456.49c0,11.45-4.23,22.17-11.89,30.19c-7.45,7.79-17.3,12.08-27.73,12.08
		c0,0,0,0,0,0c-21.85,0-39.62-18.97-39.62-42.27c0-11.45,4.22-22.16,11.89-30.18c2.99-3.13,6.39-5.67,10.04-7.62
		c2.7,0.96,5.6,1.51,8.63,1.51h29.36C-1797.66-21485.39-1789.89-21471.89-1789.89-21456.49 M-1341.87-21452.84
		C-1341.87-21452.83-1341.87-21452.83-1341.87-21452.84c0,11.45-4.23,22.17-11.89,30.19c-7.46,7.79-17.3,12.09-27.73,12.09
		c0,0,0,0-0.01,0c-21.85,0-39.63-18.97-39.62-42.28c0-11.44,4.23-22.16,11.89-30.18c4.28-4.47,9.35-7.74,14.86-9.76h25.82
		C-1353.05-21487.04-1341.87-21471.31-1341.87-21452.84"/>
</g>
</svg>
