<?xml version="1.0" encoding="utf-8"?>
<!-- Generator: Adobe Illustrator 26.5.1, SVG Export Plug-In . SVG Version: 6.00 Build 0)  -->
<svg version="1.1" id="Layer_1" xmlns="http://www.w3.org/2000/svg" xmlns:xlink="http://www.w3.org/1999/xlink" x="0px" y="0px"
	 viewBox="0 0 108 108" style="enable-background:new 0 0 108 108;" xml:space="preserve">
<style type="text/css">
	
		.st0{fill-rule:evenodd;clip-rule:evenodd;fill:#FFFFFF;stroke:#92173B;stroke-width:0.24;stroke-linecap:square;stroke-linejoin:bevel;stroke-miterlimit:10;}
	.st1{fill:#92173B;}
	.st2{fill-rule:evenodd;clip-rule:evenodd;fill:#92173B;}
</style>
<g transform="matrix(1,0,0,1,181.89,1438.96)">
	<path vector-effect="non-scaling-stroke" class="st0" d="M-73.89-1384.96c0,29.82-24.18,54-54,54s-54-24.18-54-54
		c0-29.82,24.18-54,54-54S-73.89-1414.78-73.89-1384.96"/>
</g>
<g transform="matrix(0.0848492,0,0,0.0848492,186.284,1443.35)">
	<path vector-effect="none" class="st1" d="M-1505.93-16347.14c-1.87-2.97-21.99-35.54-21.99-60.2c0-25.61,21.32-73.33,21.74-74.26
		c0.36-0.31,0.74-0.6,1.09-0.93l137.06-130.96c14.58-13.83,15.18-36.86,1.35-51.44l-2.78-2.93c-13.83-14.58-36.86-15.19-51.44-1.36
		l-128.68,122.96c-2.49-0.64-5.03-0.98-7.59-0.98h-51.55l-100.67-138.66c-11.62-16.4-34.32-20.27-50.72-8.66l-3.3,2.34
		c-16.4,11.61-20.27,34.32-8.66,50.72l105.17,144.86v172.37l-82.8,231.38c-6.77,18.92,3.08,39.74,22,46.52l3.8,1.36
		c18.92,6.77,39.74-3.08,46.51-22l80.56-225.12h36.93l158.55,183.54c13.14,15.21,36.11,16.88,51.32,3.75l3.06-2.64
		c15.2-13.13,16.88-36.11,3.75-51.31L-1505.93-16347.14"/>
</g>
<g transform="matrix(0.0848492,0,0,0.0848492,186.284,1443.35)">
	<path vector-effect="none" class="st1" d="M-1228.5-16711.35c-88.16-88.16-205.38-136.71-330.06-136.71
		c-124.68,0-241.9,48.55-330.06,136.71c-88.16,88.16-136.72,205.38-136.72,330.06c0,124.68,48.55,241.9,136.72,330.06
		c88.16,88.16,205.38,136.72,330.06,136.72s241.9-48.55,330.06-136.72c88.16-88.16,136.72-205.38,136.72-330.06
		C-1091.78-16505.96-1140.33-16623.18-1228.5-16711.35 M-1558.56-15951.08c-237.22,0-430.2-192.99-430.2-430.2
		s192.99-430.2,430.2-430.2c237.21,0,430.2,192.99,430.2,430.2S-1321.34-15951.08-1558.56-15951.08"/>
</g>
<g transform="matrix(0.0848492,0,0,0.0848492,186.284,1443.35)">
	<circle class="st2" cx="-1567.41" cy="-16641.6" r="64.01"/>
</g>
</svg>
