<?xml version="1.0" encoding="utf-8"?>
<!-- Generator: Adobe Illustrator 26.5.1, SVG Export Plug-In . SVG Version: 6.00 Build 0)  -->
<svg version="1.1" id="Layer_1" xmlns="http://www.w3.org/2000/svg" xmlns:xlink="http://www.w3.org/1999/xlink" x="0px" y="0px"
	 viewBox="0 0 108 108" style="enable-background:new 0 0 108 108;" xml:space="preserve">
<style type="text/css">
	
		.st0{fill-rule:evenodd;clip-rule:evenodd;fill:#AF6FE7;stroke:#595959;stroke-width:0.24;stroke-linecap:square;stroke-linejoin:bevel;stroke-miterlimit:10;}
	.st1{fill:#FFFFFF;}
</style>
<g transform="matrix(1,0,0,1,181.89,606.283)">
	<path vector-effect="non-scaling-stroke" class="st0" d="M-73.89-552.28c0,29.82-24.18,54-54,54s-54-24.18-54-54
		c0-29.82,24.18-54,54-54S-73.89-582.11-73.89-552.28"/>
</g>
<g transform="matrix(0.0763648,0,0,0.0763648,188.006,609.447)">
	<path vector-effect="none" class="st1" d="M-1775.24-7811.38l-501.74,381.91v516.94h1003.36l5.62-516.91L-1775.24-7811.38
		 M-1337.62-6977.23h-874.66v-420.18l437.26-332.83l441.98,332.8L-1337.62-6977.23"/>
</g>
<g transform="matrix(0.0763648,0,0,0.0763648,188.006,609.447)">
	<path vector-effect="none" class="st1" d="M-2057.6-7252.61l-65.91-5.27l-0.92-63.99h-58.33v327.04h63.84v-137.93h642.07
		l1.82,138.36h63.78v-266.89h-58.27l-1.82,66.82l-575.29-3.1L-2057.6-7252.61"/>
</g>
</svg>
