<?xml version="1.0" encoding="utf-8"?>
<!-- Generator: Adobe Illustrator 26.5.1, SVG Export Plug-In . SVG Version: 6.00 Build 0)  -->
<svg version="1.1" id="Layer_1" xmlns="http://www.w3.org/2000/svg" xmlns:xlink="http://www.w3.org/1999/xlink" x="0px" y="0px"
	 viewBox="0 0 108 108" style="enable-background:new 0 0 108 108;" xml:space="preserve">
<style type="text/css">
	
		.st0{fill-rule:evenodd;clip-rule:evenodd;fill:#92173B;stroke:#595959;stroke-width:0.24;stroke-linecap:square;stroke-linejoin:bevel;stroke-miterlimit:10;}
	.st1{fill:#FFFFFF;}
</style>
<g transform="matrix(1,0,0,1,178.937,1244.08)">
	<path vector-effect="non-scaling-stroke" class="st0" d="M-70.94-1190.08c0,29.82-24.18,54-54,54s-54-24.18-54-54s24.18-54,54-54
		S-70.94-1219.9-70.94-1190.08"/>
</g>
<g transform="matrix(0.0933342,0,0,0.0933342,183.87,1249.01)">
	<path vector-effect="none" class="st1" d="M-1390.07-12551.48c-51.94,22.96-65.25,48.46-40.58,77.78
		c15.2,18.06,22.67,16.57,24.76-4.94c2.05-21.17,6.96-26.5,28.09-30.46c45.22-8.48,63.05-28,63.05-68.99
		c0-29.37-30.94-30.33-76.19-2.37c-13.65,8.44-4.72,21.61,9.62,14.2c7.85-4.06,14.26-9.89,14.26-12.96c0-4.1,1.41-4.18,5.29-0.29
		C-1353.66-12571.4-1360.66-12564.48-1390.07-12551.48"/>
</g>
<g transform="matrix(0.0933342,0,0,0.0933342,183.87,1249.01)">
	<path vector-effect="none" class="st1" d="M-1328.25-12476.61c15.12-16.92,13.59-47.42-1.95-39.03
		c-5.88,3.17-22.47,9.41-36.85,13.87c-19.74,6.11-26.52,10.57-27.67,18.17c-1.94,12.83,2.81,12.75,16.67-0.26
		c8.46-7.94,11-8.67,11-3.13c0,3.97-20.46,20.37-45.47,36.46c-25.01,16.09-44.24,31.24-42.74,33.67
		C-1450.84-12409.72-1342.48-12460.69-1328.25-12476.61"/>
</g>
<g transform="matrix(0.0933342,0,0,0.0933342,183.87,1249.01)">
	<path vector-effect="none" class="st1" d="M-1483.48-12873.04c1.65-2.67,13.69-10.96,26.77-18.43
		c23.77-13.58,23.77-13.58,5.6-16.85c-35.1-6.33-58.58-20.91-58.58-36.37c0-17.08,12.88-18.67,32.69-4.02
		c16.34,12.08,51.47,11.35,59.36-1.25c16.37-26.13-26.28-58.75-69.65-53.28c-83.21,10.51-100.31,75.37-31.97,121.27
		C-1497.57-12867.39-1488.39-12865.11-1483.48-12873.04"/>
</g>
<g transform="matrix(0.0933342,0,0,0.0933342,183.87,1249.01)">
	<path vector-effect="none" class="st1" d="M-1547.66-13056.38c3.23,4.41,11.79,11.93,19.02,16.7c13.63,8.99,55.97,11.82,86.26,5.76
		c18.94-3.79,24.17-112.31,5.69-118.17c-5.04-1.6-13.53-10.3-18.86-19.34c-12.17-20.64-26.56-21.42-79.49-4.3
		c-32.94,10.65-48.66,12.48-129.04,14.99c-50.34,1.57-91.53,4.19-91.53,5.83c0,16.24,37.32,40.78,55.19,36.29
		c9.1-2.28,11.38-0.99,11.38,6.48c0,12.36,17.53,24.14,35.96,24.14c11.21,0,16.15,2.91,20.25,11.92
		c9.54,20.94,34.5,29.28,58.91,19.69C-1554.79-13063.91-1553.17-13063.91-1547.66-13056.38"/>
</g>
<g transform="matrix(0.0933342,0,0,0.0933342,183.87,1249.01)">
	<path vector-effect="none" class="st1" d="M-1409.62-13178.47c8,5.6,9.29,12.24,9.3,47.84c0.01,22.73,1.41,81.46,3.13,130.49
		c3.12,89.15,3.12,89.15,16.63,89.15c13.51,0,13.51,0,13.51-126.51c0-126.51,0-126.51,11.89-140.64
		c22.65-26.91,19.31-59.16-7.57-73.06C-1409.12-13275.17-1452.23-13208.32-1409.62-13178.47"/>
</g>
<g transform="matrix(0.0933342,0,0,0.0933342,183.87,1249.01)">
	<path vector-effect="none" class="st1" d="M-1287.37-12845.43c-3.82,3.17-17,7.14-29.29,8.82c-18.07,2.48-21.75,4.53-19.19,10.7
		c7.54,18.22,6.86,23.53-4.8,37.39c-7.97,9.47-24.52,19.29-46.71,27.72c-85.52,32.48-115,75.5-81.67,119.2
		c14.59,19.13,14.13,19.09,44.54,3.31c23.12-11.99,23.81-12.91,14.7-19.29c-27.62-19.35-9.63-41.34,51.49-62.95
		c69.97-24.74,100.23-55.42,93.56-94.86C-1269.05-12840.92-1278.19-12853.05-1287.37-12845.43"/>
</g>
<g transform="matrix(0.0933342,0,0,0.0933342,183.87,1249.01)">
	<path vector-effect="none" class="st1" d="M-1333.65-12988.81c-38.23,32.17,7.74,69.88,48.47,39.77
		c17.12-12.66,29.87-10.82,29.87,4.32c0,22.14-69.83,47.61-131.35,47.89c-84.92,0.4-145.48,84.42-97.51,135.28
		c19.19,20.35,22.13,20.58,53.37,4.22c24.37-12.76,24.37-12.76,10.77-24.2c-37.44-31.5-17.98-50.36,65.11-63.12
		c97.93-15.03,149.53-50.37,149.53-102.4C-1205.38-12993.13-1294.15-13022.04-1333.65-12988.81"/>
</g>
<g transform="matrix(0.0933342,0,0,0.0933342,183.87,1249.01)">
	<path vector-effect="none" class="st1" d="M-1098.8-13160.61c-80.46-2.39-95.79-4.16-129.32-14.92
		c-56.88-18.26-77.01-15.57-85.59,11.46c-1.65,5.21-8.28,10.79-14.72,12.41c-18.43,4.62-15.83,111.15,2.84,116.69
		c32.2,9.56,84.32,2.36,101.17-13.98c15.56-15.08,16.5-15.34,29.96-8.33c24.52,12.79,47.1,6.53,60.93-16.88
		c6.52-11.04,11.52-13.86,24.56-13.86c17.32,0,35.39-13.4,35.39-26.24c0-5.24,3.12-6.44,11.38-4.37
		c15.24,3.83,39.07-9.06,47.73-25.81C-1007.51-13157.91-1007.51-13157.91-1098.8-13160.61"/>
</g>
<g transform="matrix(0.0933342,0,0,0.0933342,183.87,1249.01)">
	<path vector-effect="none" class="st1" d="M-1387.84-12348.92c3.73,6.03,13.48,1.92,14.57-6.13c0.5-3.71,2.26-23.1,3.93-43.1
		c3.02-36.37,3.02-36.37,29.37-27.1c29.58,10.4,35.76,8.78,22.49-5.89C-1360.2-12478.34-1422.68-12405.3-1387.84-12348.92"/>
</g>
<g transform="matrix(0.0933342,0,0,0.0933342,183.87,1249.01)">
	<path vector-effect="none" class="st1" d="M-1326.9-12719.78c-7.7,3.82-26.3,10.71-41.34,15.31c-27.34,8.35-27.34,8.35-27.34,31.44
		c0,23.09,0,23.09,14.26,18.11c12.96-4.52,14.26-6.9,14.26-26.07c0-19.54,0.69-20.73,9.4-16.07c31.21,16.71,17.4,41.11-32.66,57.68
		c-56.51,18.71-85.83,65.93-59.21,95.35c9.66,10.67,7.6,10.83,26.39-2c12.24-8.36,15.34-13.5,14.19-23.5
		c-1.7-14.69,5.31-19.24,57.34-37.27c62.5-21.65,83.74-67.55,49.63-107.21C-1312.36-12726.1-1313.6-12726.39-1326.9-12719.78"/>
</g>
<g transform="matrix(0.0933342,0,0,0.0933342,183.87,1249.01)">
	<path vector-effect="none" class="st1" d="M-1367.05-12806.26c0-23.38-0.31-23.89-14.26-23.89c-14.26,0-14.26,0-14.26,28.53
		c0,15.69,0.93,28.53,2.07,28.53C-1375.38-12773.09-1367.05-12783.54-1367.05-12806.26"/>
</g>
</svg>
