<?xml version="1.0" encoding="utf-8"?>
<!-- Generator: Adobe Illustrator 26.5.1, SVG Export Plug-In . SVG Version: 6.00 Build 0)  -->
<svg version="1.1" id="Layer_1" xmlns="http://www.w3.org/2000/svg" xmlns:xlink="http://www.w3.org/1999/xlink" x="0px" y="0px"
	 viewBox="0 0 108 108" style="enable-background:new 0 0 108 108;" xml:space="preserve">
<style type="text/css">
	
		.st0{fill-rule:evenodd;clip-rule:evenodd;fill:#C33A30;stroke:#FFFFFF;stroke-width:0.5;stroke-linecap:square;stroke-linejoin:bevel;stroke-miterlimit:10;stroke-dasharray:0.5,1;}
	
		.st1{fill-rule:evenodd;clip-rule:evenodd;fill:#C3837F;stroke:#FFFFFF;stroke-width:0.8;stroke-linecap:round;stroke-linejoin:round;stroke-miterlimit:10;stroke-dasharray:0.8,1.6;}
	.st2{fill:#FFFFFF;}
	.st3{opacity:0.75;}
</style>
<g transform="matrix(1,0,0,1,170.079,319.724)">
	<path vector-effect="none" class="st0" d="M-62.08-265.72c0,29.82-24.18,54-54,54c-29.82,0-54-24.18-54-54c0-29.82,24.18-54,54-54
		C-86.26-319.72-62.08-295.55-62.08-265.72"/>
</g>
<g transform="matrix(1,0,0,1,170.079,319.724)">
	<path vector-effect="none" class="st1" d="M-76.28-265.72c0,21.98-17.82,39.8-39.8,39.8c-21.98,0-39.8-17.82-39.8-39.8
		c0-21.98,17.82-39.8,39.8-39.8C-94.1-305.52-76.28-287.7-76.28-265.72"/>
</g>
<g transform="matrix(0.161638,0,0,0.161638,200.358,350.004)">
	<path vector-effect="none" class="st2" d="M-754.45-1833.71c0.88-0.51,1.49-1.38,1.66-2.38c0.17-1-0.12-2.02-0.78-2.79
		l-151.26-174.94c-1.05-1.21-2.81-1.53-4.21-0.75l-152.58,84.18c-0.9,0.5-1.53,1.38-1.7,2.39c-0.18,1.01,0.12,2.05,0.8,2.83
		l155.21,176.25c0.66,0.75,1.6,1.15,2.55,1.15c0.58,0,1.16-0.15,1.69-0.45L-754.45-1833.71"/>
</g>
<g transform="matrix(0.161638,0,0,0.161638,200.358,350.004)">
	<path vector-effect="none" class="st2" d="M-912.35-1734.32c-0.01-0.81-0.31-1.6-0.84-2.21l-152.58-173.62
		c-0.93-1.06-2.41-1.43-3.73-0.94c-1.32,0.49-2.2,1.74-2.21,3.15l-0.66,65.44c-0.01,0.84,0.3,1.65,0.85,2.28l153.89,173.95
		c0.66,0.74,1.59,1.15,2.54,1.15c0.02,0,0.03,0,0.05,0c1.86-0.02,3.36-1.53,3.36-3.4c0-0.11-0.01-0.23-0.02-0.34L-912.35-1734.32"/>
</g>
<g transform="matrix(0.161638,0,0,0.161638,200.358,350.004)" class="st3">
	<path vector-effect="none" class="st2" d="M-754.32-1818.52c-1.77-1.13-4.03-1.18-5.84-0.11l-140.09,82.09
		c-1.64,0.96-2.67,2.68-2.76,4.57l-0.1,2.16c-0.09,2.05,0.94,3.98,2.7,5.04c0.89,0.54,1.89,0.8,2.89,0.8c0.98,0,1.96-0.26,2.83-0.77
		l139.98-82.03c1.55-0.91,2.57-2.5,2.74-4.29l0.22-2.22C-751.56-1815.36-752.55-1817.39-754.32-1818.52"/>
</g>
<g transform="matrix(0.161638,0,0,0.161638,200.358,350.004)" class="st3">
	<path vector-effect="none" class="st2" d="M-754.32-1791.35c-1.77-1.13-4.03-1.18-5.84-0.11l-140.09,82.09
		c-1.64,0.96-2.67,2.68-2.76,4.57l-0.1,2.16c-0.09,2.05,0.94,3.98,2.7,5.04c0.89,0.54,1.89,0.8,2.89,0.8c0.98,0,1.96-0.26,2.83-0.77
		l139.98-82.03c1.55-0.91,2.57-2.5,2.74-4.29l0.22-2.22C-751.56-1788.19-752.55-1790.22-754.32-1791.35"/>
</g>
<g transform="matrix(0.161638,0,0,0.161638,200.358,350.004)" class="st3">
	<path vector-effect="none" class="st2" d="M-754.32-1764.18c-1.77-1.13-4.03-1.18-5.84-0.11l-140.09,82.09
		c-1.64,0.96-2.67,2.68-2.76,4.57l-0.1,2.16c-0.09,2.05,0.94,3.98,2.7,5.04c0.89,0.54,1.89,0.8,2.89,0.8c0.98,0,1.96-0.26,2.83-0.77
		l139.98-82.03c1.55-0.91,2.57-2.5,2.74-4.29l0.22-2.22C-751.56-1761.02-752.55-1763.05-754.32-1764.18"/>
</g>
</svg>
