<?xml version="1.0" encoding="utf-8"?>
<!-- Generator: Adobe Illustrator 26.5.1, SVG Export Plug-In . SVG Version: 6.00 Build 0)  -->
<svg version="1.1" id="Layer_1" xmlns="http://www.w3.org/2000/svg" xmlns:xlink="http://www.w3.org/1999/xlink" x="0px" y="0px"
	 viewBox="0 0 108 108" style="enable-background:new 0 0 108 108;" xml:space="preserve">
<style type="text/css">
	
		.st0{fill-rule:evenodd;clip-rule:evenodd;fill:#98D443;fill-opacity:0.451;stroke:#98D443;stroke-width:1.1339;stroke-linecap:square;stroke-linejoin:bevel;stroke-miterlimit:10;}
	
		.st1{fill-rule:evenodd;clip-rule:evenodd;fill:#FFFFFF;stroke:#98D443;stroke-width:0.24;stroke-linecap:square;stroke-linejoin:bevel;stroke-miterlimit:10;}
	.st2{fill:#98D443;}
</style>
<g transform="matrix(1,0,0,1,170.079,2076.76)">
	<path vector-effect="none" class="st0" d="M-170.08-2053.06h108v61.16h-108V-2053.06"/>
</g>
<g transform="matrix(1,0,0,1,170.079,2076.76)">
	<path vector-effect="non-scaling-stroke" class="st1" d="M-69.97-2022.48c0,25.46-20.64,46.11-46.11,46.11
		s-46.11-20.64-46.11-46.11c0-25.46,20.64-46.11,46.11-46.11S-69.97-2047.95-69.97-2022.48"/>
</g>
<g transform="matrix(0.0814558,0,0,0.0814558,186.776,2073.68)">
	<path vector-effect="none" class="st2" d="M-1476.14-24761.18h70.85l-106.15-152.99h54.13l-191.82-276.79l-191.59,277.03h53.9
		l-105.91,152.99h70.85l-111.33,160.99h212.53v113.68h143.34v-113.92h212.77L-1476.14-24761.18"/>
</g>
</svg>
