<?xml version="1.0" encoding="utf-8"?>
<!-- Generator: Adobe Illustrator 26.5.1, SVG Export Plug-In . SVG Version: 6.00 Build 0)  -->
<svg version="1.1" id="Layer_1" xmlns="http://www.w3.org/2000/svg" xmlns:xlink="http://www.w3.org/1999/xlink" x="0px" y="0px"
	 viewBox="0 0 108 108" style="enable-background:new 0 0 108 108;" xml:space="preserve">
<style type="text/css">
	
		.st0{fill-rule:evenodd;clip-rule:evenodd;fill:#FFFFFF;stroke:#92173B;stroke-width:0.24;stroke-linecap:square;stroke-linejoin:bevel;stroke-miterlimit:10;}
	.st1{fill:#FC3A27;}
</style>
<g transform="matrix(1,0,0,1,181.89,1533.45)">
	<path vector-effect="non-scaling-stroke" class="st0" d="M-73.89-1479.45c0,29.82-24.18,54-54,54s-54-24.18-54-54
		c0-29.82,24.18-54,54-54S-73.89-1509.27-73.89-1479.45"/>
</g>
<g transform="matrix(0.164042,0,0,0.164042,186.284,1537.84)">
	<path vector-effect="none" class="st1" d="M-891.75-8811.26c-90.62-0.46-160.02-81.09-146.87-163.84
		c3.75-23.61,14.76-43.62,31.62-60.5c70.04-70.03,139.94-140.2,210.15-210.07c38-37.82,93.4-45.04,144.27-17.54
		c50.13,27.1,78.4,69.38,79.96,127.21c0.84,31.27-10.75,58.36-32.97,80.59c-70.23,70.28-140.51,140.51-210.75,210.77
		C-838.84-8822.11-866.22-8811.57-891.75-8811.26 M-898.48-9096.85c-30.45,29.96-61.56,59.98-91.92,90.75
		c-10.72,10.86-15.73,25.2-17.34,40.43c-4.68,44.7,20.34,88.71,62.78,110.53c34.18,17.59,79.21,18.45,111.06-16.9
		c16.09-17.85,33.83-34.2,50.88-51.17c9.86-9.82,19.79-19.57,29.28-28.93C-802.69-9001.07-850.91-9049.28-898.48-9096.85"/>
</g>
</svg>
