<?xml version="1.0" encoding="utf-8"?>
<!-- Generator: Adobe Illustrator 26.5.1, SVG Export Plug-In . SVG Version: 6.00 Build 0)  -->
<svg version="1.1" id="Layer_1" xmlns="http://www.w3.org/2000/svg" xmlns:xlink="http://www.w3.org/1999/xlink" x="0px" y="0px"
	 viewBox="0 0 108 108" style="enable-background:new 0 0 108 108;" xml:space="preserve">
<style type="text/css">
	
		.st0{fill-rule:evenodd;clip-rule:evenodd;fill:#F1CD44;stroke:#FDBF6F;stroke-width:0.24;stroke-linecap:square;stroke-linejoin:bevel;stroke-miterlimit:10;}
	.st1{fill:#FFFFFF;}
</style>
<g transform="matrix(1,0,0,1,187.795,1161.4)">
	<path vector-effect="non-scaling-stroke" class="st0" d="M-79.79-1107.4c0,29.82-24.18,54-54,54s-54-24.18-54-54
		c0-29.82,24.18-54,54-54S-79.79-1137.22-79.79-1107.4"/>
</g>
<g transform="matrix(0.0678797,0,0,0.0678797,191.11,1164.72)">
	<path vector-effect="none" class="st1" d="M-1784.23-16036.46l-210.04,2.5l176.38-103.58c23.95-17.65,38.36-45.4,38.84-75.1
		v-336.65c0.32-27.35-11.17-53.57-31.4-71.9c-20.39-18.33-47.58-27.03-74.77-23.91c-22.98,2.39-43.31,12.81-58.38,28.27
		l-156.78,127.07l-124.76-87.84c-29.94-21.08-71.29-13.89-92.37,16.04c-21.08,29.94-13.9,71.29,16.04,92.37l165.73,116.69
		c11.48,8.08,24.83,12.09,38.16,12.09c14.83,0,29.62-4.96,41.75-14.79l85.15-69.01v162.37l-297.8,225.29
		c-32.25,24.77-45.24,67.17-32.41,105.77c12.87,38.52,48.76,64.66,89.38,65.14h427.28c52.92,0,95.81-32.53,95.81-85.46
		C-1688.42-16004.01-1731.31-16036.46-1784.23-16036.46"/>
</g>
<g transform="matrix(0.0678797,0,0,0.0678797,191.11,1164.72)">
	<path vector-effect="none" class="st1" d="M-2019.89-16646.19c69.59,0,126.08-56.48,126.08-126.12
		c0-69.64-56.48-126.08-126.08-126.08c-69.64,0-126.08,56.44-126.08,126.08C-2145.97-16702.67-2089.52-16646.19-2019.89-16646.19"/>
</g>
</svg>
