<?xml version="1.0" encoding="utf-8"?>
<!-- Generator: Adobe Illustrator 26.5.1, SVG Export Plug-In . SVG Version: 6.00 Build 0)  -->
<svg version="1.1" id="Layer_1" xmlns="http://www.w3.org/2000/svg" xmlns:xlink="http://www.w3.org/1999/xlink" x="0px" y="0px"
	 viewBox="0 0 108 108" style="enable-background:new 0 0 108 108;" xml:space="preserve">
<style type="text/css">
	
		.st0{fill-rule:evenodd;clip-rule:evenodd;fill:#AF6FE7;stroke:#595959;stroke-width:0.24;stroke-linecap:square;stroke-linejoin:bevel;stroke-miterlimit:10;}
	.st1{fill:#FFFFFF;}
</style>
<g transform="matrix(1,0,0,1,181.89,795.26)">
	<path vector-effect="non-scaling-stroke" class="st0" d="M-73.89-741.3c0,29.85-24.2,54.04-54.04,54.04s-54.04-24.2-54.04-54.04
		s24.2-54.04,54.04-54.04S-73.89-771.15-73.89-741.3"/>
</g>
<g transform="matrix(0.0848492,0,0,0.0848492,186.284,799.654)">
	<path vector-effect="none" class="st1" d="M-1896.87-9049.67v516.81h680.54v-516.81H-1896.87 M-1299.92-9001.06l-217.44,216.61
		c-10.81,10.81-24.46,16.21-40.94,16.21c-17.05,0-31.27-5.69-42.65-17.07l-215.75-215.75H-1299.92 M-1849.11-8967.8l176.53,177.39
		l-176.53,176.53V-8967.8 M-1817.57-8580.62l177.39-176.53l7.68,7.68c20.47,19.9,45.21,29.85,74.2,29.85
		c28.99,0,53.44-9.95,73.34-29.85l7.68-7.68l177.36,176.53H-1817.57 M-1265.8-8613.88l-176.53-176.53l176.53-177.39V-8613.88"/>
</g>
<g transform="matrix(0.0848492,0,0,0.0848492,186.284,799.654)">
	<path vector-effect="none" class="st1" d="M-1187.23-9153.92c-98.81-98.81-230.18-153.23-369.92-153.23
		s-271.11,54.42-369.92,153.23c-98.81,98.81-153.22,230.18-153.22,369.92s54.42,271.11,153.22,369.92
		c98.81,98.81,230.18,153.22,369.92,153.22s271.11-54.41,369.92-153.22c98.81-98.81,153.22-230.18,153.22-369.92
		C-1034.01-8923.74-1088.42-9055.11-1187.23-9153.92 M-1557.15-8306.87c-263.09,0-477.13-214.04-477.13-477.14
		c0-263.09,214.04-477.14,477.13-477.14c263.09,0,477.14,214.04,477.14,477.14C-1080.02-8520.91-1294.06-8306.87-1557.15-8306.87"/>
</g>
</svg>
