<?xml version="1.0" encoding="utf-8"?>
<!-- Generator: Adobe Illustrator 26.5.1, SVG Export Plug-In . SVG Version: 6.00 Build 0)  -->
<svg version="1.1" id="Layer_1" xmlns="http://www.w3.org/2000/svg" xmlns:xlink="http://www.w3.org/1999/xlink" x="0px" y="0px"
	 viewBox="0 0 108 108" style="enable-background:new 0 0 108 108;" xml:space="preserve">
<style type="text/css">
	
		.st0{fill-rule:evenodd;clip-rule:evenodd;fill:#AF6FE7;stroke:#595959;stroke-width:0.24;stroke-linecap:square;stroke-linejoin:bevel;stroke-miterlimit:10;}
	.st1{fill:#FFFFFF;}
</style>
<g transform="matrix(1,0,0,1,181.89,700.772)">
	<path vector-effect="non-scaling-stroke" class="st0" d="M-73.89-646.71c0,29.79-24.17,53.94-53.97,53.94s-53.97-24.15-53.97-53.94
		s24.17-53.94,53.97-53.94S-73.89-676.51-73.89-646.71"/>
</g>
<g transform="matrix(0.0763644,0,0,0.0763644,188.744,707.626)">
	<path vector-effect="none" class="st1" d="M-1284.91-8634.07l-45.88-85.59l-18.35-87.12l-7.65-67.25l-53.53,39.74l-55.06,48.91
		l-55.06-59.61l87.17-94.76l-18.35-19.87l-82.58-9.17l-77.99-30.57l-85.64-47.38l-62.7-13.76l-74.94,16.81l-71.88,42.8l-65.76,19.87
		l-104,7.64v18.34l88.7,100.88l-64.23,55.02l-108.58-93.23l-10.71,85.59l-29.06,74.89l-52,96.29l-19.88,71.84l33.65,94.76
		l47.41,93.24l19.88,128.39l108.58-84.06l56.59,61.14l-93.29,97.82l16.82,15.29l62.7,6.11l58.12,15.29l99.41,58.08l70.35,21.4
		l67.29-9.17l85.64-38.21l74.94-29.04l81.06-10.7l35.18-21.4l-87.17-90.18l62.7-58.08l93.29,88.65l16.82-27.51l9.18-82.54
		l41.29-79.48l44.35-84.07l10.7-59.61L-1284.91-8634.07"/>
</g>
</svg>
